<mxfile host="app.diagrams.net" modified="2023-03-31T14:17:56.471Z" agent="Mozilla/5.0 (Windows NT 10.0; Win64; x64) AppleWebKit/537.36 (KHTML, like Gecko) Chrome/110.0.0.0 YaBrowser/23.3.0.2246 Yowser/2.5 Safari/537.36" version="21.1.2" etag="_PxYoLHkg3e6OkItVZVt" type="github">
  <diagram name="Страница 1" id="Y36ZwROR61w1OMtb8QBo">
    <mxGraphModel>
      <root>
        <mxCell id="0" />
        <mxCell id="1" parent="0" />
      </root>
    </mxGraphModel>
  </diagram>
</mxfile>
